umbra-1.ufo
<glyph name="dollar" format="1">
  <advance width="449"/>
  <unicode hex="0024"/>
  <outline>
    <contour>
      <point x="690" y="258" type="curve" smooth="yes"/>
      <point x="690" y="318"/>
      <point x="457" y="321"/>
      <point x="457" y="471" type="curve" smooth="yes"/>
      <point x="457" y="550"/>
      <point x="513" y="601"/>
      <point x="591" y="617" type="curve"/>
      <point x="576" y="678" type="line"/>
      <point x="716" y="678" type="line"/>
      <point x="701" y="617" type="line"/>
      <point x="747" y="605"/>
      <point x="789" y="578"/>
      <point x="826" y="536" type="curve"/>
      <point x="786" y="426" type="line"/>
      <point x="746" y="464"/>
      <point x="698" y="503"/>
      <point x="650" y="503" type="curve" smooth="yes"/>
      <point x="622" y="503"/>
      <point x="612" y="489"/>
      <point x="612" y="471" type="curve" smooth="yes"/>
      <point x="612" y="411"/>
      <point x="835" y="404"/>
      <point x="835" y="260" type="curve" smooth="yes"/>
      <point x="835" y="155"/>
      <point x="770" y="110"/>
      <point x="687" y="97" type="curve"/>
      <point x="703" y="33" type="line"/>
      <point x="563" y="33" type="line"/>
      <point x="579" y="97" type="line"/>
      <point x="510" y="107"/>
      <point x="458" y="137"/>
      <point x="426" y="175" type="curve"/>
      <point x="466" y="290" type="line"/>
      <point x="506" y="252"/>
      <point x="575" y="218"/>
      <point x="623" y="218" type="curve" smooth="yes"/>
      <point x="661" y="218"/>
      <point x="690" y="227"/>
    </contour>
  </outline>
</glyph>
<glyph name="quotesingle" format="1">
  <advance width="220"/>
  <unicode hex="0027"/>
  <outline>
    <contour>
      <point x="456" y="348" type="line"/>
      <point x="456" y="608" type="line"/>
      <point x="586" y="608" type="line"/>
      <point x="586" y="468" type="line"/>
    </contour>
  </outline>
</glyph>
<glyph name="parenleft" format="1">
  <advance width="232"/>
  <unicode hex="0028"/>
  <outline>
    <contour>
      <point x="553" y="68" type="line"/>
      <point x="478" y="153"/>
      <point x="441" y="258"/>
      <point x="441" y="363" type="curve" smooth="yes"/>
      <point x="441" y="468"/>
      <point x="478" y="573"/>
      <point x="553" y="658" type="curve"/>
      <point x="643" y="658" type="line"/>
      <point x="593" y="583"/>
      <point x="569" y="473"/>
      <point x="569" y="363" type="curve" smooth="yes"/>
      <point x="569" y="253"/>
      <point x="593" y="143"/>
      <point x="643" y="68" type="curve"/>
    </contour>
  </outline>
</glyph>
<glyph name="plus" format="1">
  <advance width="560"/>
  <unicode hex="002B"/>
  <outline>
    <contour>
      <point x="496" y="298" type="line"/>
      <point x="496" y="408" type="line"/>
      <point x="621" y="408" type="line"/>
      <point x="621" y="528" type="line"/>
      <point x="761" y="528" type="line"/>
      <point x="761" y="408" type="line"/>
      <point x="886" y="408" type="line"/>
      <point x="886" y="298" type="line"/>
      <point x="761" y="298" type="line"/>
      <point x="761" y="178" type="line"/>
      <point x="621" y="178" type="line"/>
      <point x="621" y="298" type="line"/>
    </contour>
  </outline>
</glyph>
<glyph name="zero" format="1">
  <advance width="510"/>
  <unicode hex="0030"/>
  <outline>
    <contour>
      <point x="441" y="358" type="curve" smooth="yes"/>
      <point x="441" y="507"/>
      <point x="511" y="628"/>
      <point x="666" y="628" type="curve" smooth="yes"/>
      <point x="821" y="628"/>
      <point x="891" y="507"/>
      <point x="891" y="358" type="curve" smooth="yes"/>
      <point x="891" y="209"/>
      <point x="821" y="88"/>
      <point x="666" y="88" type="curve" smooth="yes"/>
      <point x="511" y="88"/>
      <point x="441" y="209"/>
    </contour>
    <contour>
      <point x="586" y="358" type="curve" smooth="yes"/>
      <point x="586" y="265"/>
      <point x="614" y="213"/>
      <point x="666" y="213" type="curve" smooth="yes"/>
      <point x="718" y="213"/>
      <point x="746" y="265"/>
      <point x="746" y="358" type="curve" smooth="yes"/>
      <point x="746" y="451"/>
      <point x="718" y="503"/>
      <point x="666" y="503" type="curve" smooth="yes"/>
      <point x="614" y="503"/>
      <point x="586" y="451"/>
    </contour>
  </outline>
</glyph>
<glyph name="one" format="1">
  <advance width="230"/>
  <unicode hex="0031"/>
  <outline>
    <contour>
      <point x="456" y="108" type="line"/>
      <point x="456" y="558" type="line"/>
      <point x="596" y="638" type="line"/>
      <point x="596" y="108" type="line"/>
    </contour>
  </outline>
</glyph>
<glyph name="three" format="1">
  <advance width="464"/>
  <unicode hex="0033"/>
  <outline>
    <contour>
      <point x="568" y="317" type="line"/>
      <point x="568" y="412" type="line"/>
      <point x="618" y="412" type="line" smooth="yes"/>
      <point x="666" y="412"/>
      <point x="675" y="437"/>
      <point x="675" y="465" type="curve" smooth="yes"/>
      <point x="675" y="488"/>
      <point x="661" y="503"/>
      <point x="633" y="503" type="curve" smooth="yes"/>
      <point x="585" y="503"/>
      <point x="537" y="464"/>
      <point x="497" y="426" type="curve"/>
      <point x="457" y="536" type="line"/>
      <point x="507" y="593"/>
      <point x="567" y="623"/>
      <point x="634" y="623" type="curve" smooth="yes"/>
      <point x="741" y="623"/>
      <point x="826" y="578"/>
      <point x="826" y="481" type="curve" smooth="yes"/>
      <point x="826" y="426"/>
      <point x="800" y="393"/>
      <point x="755" y="375" type="curve"/>
      <point x="809" y="355"/>
      <point x="840" y="316"/>
      <point x="840" y="260" type="curve" smooth="yes"/>
      <point x="840" y="133"/>
      <point x="715" y="93"/>
      <point x="638" y="93" type="curve" smooth="yes"/>
      <point x="541" y="93"/>
      <point x="471" y="128"/>
      <point x="431" y="175" type="curve"/>
      <point x="471" y="290" type="line"/>
      <point x="511" y="252"/>
      <point x="570" y="218"/>
      <point x="618" y="218" type="curve" smooth="yes"/>
      <point x="666" y="218"/>
      <point x="695" y="227"/>
      <point x="695" y="268" type="curve" smooth="yes"/>
      <point x="695" y="306"/>
      <point x="666" y="317"/>
      <point x="618" y="317" type="curve" smooth="yes"/>
    </contour>
  </outline>
</glyph>
<glyph name="four" format="1">
  <advance width="490"/>
  <unicode hex="0034"/>
  <outline>
    <contour>
      <point x="666" y="203" type="line"/>
      <point x="589" y="203"/>
      <point x="513" y="203"/>
      <point x="436" y="203" type="curve"/>
      <point x="416" y="273" type="line"/>
      <point x="706" y="608" type="line"/>
      <point x="806" y="608" type="line"/>
      <point x="806" y="508"/>
      <point x="806" y="408"/>
      <point x="806" y="308" type="curve"/>
      <point x="876" y="308" type="line"/>
      <point x="876" y="203" type="line"/>
      <point x="806" y="203" type="line"/>
      <point x="806" y="108" type="line"/>
      <point x="666" y="108" type="line"/>
    </contour>
    <contour>
      <point x="677" y="308" type="line"/>
      <point x="677" y="440" type="line"/>
      <point x="563" y="308" type="line"/>
    </contour>
  </outline>
</glyph>
<glyph name="seven" format="1">
  <advance width="455"/>
  <unicode hex="0037"/>
  <outline>
    <contour>
      <point x="846" y="608" type="line"/>
      <point x="845" y="468"/>
      <point x="668" y="415"/>
      <point x="668" y="105" type="curve"/>
      <point x="533" y="107" type="line"/>
      <point x="533" y="326"/>
      <point x="620" y="406"/>
      <point x="679" y="488" type="curve"/>
      <point x="436" y="488" type="line"/>
      <point x="436" y="608" type="line"/>
    </contour>
  </outline>
</glyph>
<glyph name="colon" format="1">
  <advance width="291"/>
  <unicode hex="003A"/>
  <outline>
    <contour>
      <point x="556" y="365" type="line"/>
      <point x="451" y="470" type="line"/>
      <point x="556" y="576" type="line"/>
      <point x="662" y="470" type="line"/>
    </contour>
    <contour>
      <point x="556" y="80" type="line"/>
      <point x="451" y="185" type="line"/>
      <point x="556" y="291" type="line"/>
      <point x="662" y="185" type="line"/>
    </contour>
  </outline>
</glyph>
<glyph name="A" format="1">
  <advance width="580"/>
  <unicode hex="0041"/>
  <outline>
    <contour>
      <point x="421" y="108" type="line"/>
      <point x="621" y="608" type="line"/>
      <point x="781" y="608" type="line"/>
      <point x="981" y="108" type="line"/>
      <point x="831" y="108" type="line"/>
      <point x="800" y="193" type="line"/>
      <point x="602" y="193" type="line"/>
      <point x="571" y="108" type="line"/>
    </contour>
    <contour>
      <point x="701" y="469" type="line"/>
      <point x="643" y="308" type="line"/>
      <point x="759" y="308" type="line"/>
    </contour>
  </outline>
</glyph>
<glyph name="E" format="1">
  <advance width="455"/>
  <unicode hex="0045"/>
  <outline>
    <contour>
      <point x="456" y="108" type="curve"/>
      <point x="456" y="608" type="line"/>
      <point x="583" y="608"/>
      <point x="709" y="608"/>
      <point x="836" y="608" type="curve"/>
      <point x="836" y="493" type="line"/>
      <point x="596" y="493" type="line"/>
      <point x="596" y="418" type="line"/>
      <point x="806" y="418" type="line"/>
      <point x="806" y="303" type="line"/>
      <point x="596" y="303" type="line"/>
      <point x="596" y="228" type="line"/>
      <point x="836" y="228" type="line"/>
      <point x="836" y="108" type="line"/>
      <point x="709" y="108"/>
      <point x="583" y="108"/>
    </contour>
  </outline>
</glyph>
<glyph name="F" format="1">
  <advance width="450"/>
  <unicode hex="0046"/>
  <outline>
    <contour>
      <point x="456" y="108" type="line"/>
      <point x="456" y="608" type="line"/>
      <point x="583" y="608"/>
      <point x="709" y="608"/>
      <point x="836" y="608" type="curve"/>
      <point x="836" y="488" type="line"/>
      <point x="596" y="488" type="line"/>
      <point x="596" y="398" type="line"/>
      <point x="806" y="398" type="line"/>
      <point x="806" y="273" type="line"/>
      <point x="596" y="273" type="line"/>
      <point x="596" y="108" type="line"/>
    </contour>
  </outline>
</glyph>
<glyph name="G" format="1">
  <advance width="555"/>
  <unicode hex="0047"/>
  <outline>
    <contour>
      <point x="586" y="358" type="curve" smooth="yes"/>
      <point x="586" y="265"/>
      <point x="659" y="213"/>
      <point x="716" y="213" type="curve" smooth="yes"/>
      <point x="750" y="213"/>
      <point x="778" y="220"/>
      <point x="801" y="232" type="curve"/>
      <point x="801" y="303" type="line"/>
      <point x="691" y="303" type="line"/>
      <point x="691" y="398" type="line"/>
      <point x="931" y="398" type="line"/>
      <point x="931" y="182" type="line"/>
      <point x="879" y="130"/>
      <point x="797" y="88"/>
      <point x="716" y="88" type="curve" smooth="yes"/>
      <point x="561" y="88"/>
      <point x="441" y="209"/>
      <point x="441" y="358" type="curve" smooth="yes"/>
      <point x="441" y="507"/>
      <point x="551" y="628"/>
      <point x="726" y="628" type="curve" smooth="yes"/>
      <point x="807" y="628"/>
      <point x="854" y="606"/>
      <point x="886" y="574" type="curve"/>
      <point x="846" y="447" type="line"/>
      <point x="821" y="480"/>
      <point x="777" y="503"/>
      <point x="716" y="503" type="curve" smooth="yes"/>
      <point x="659" y="503"/>
      <point x="586" y="451"/>
    </contour>
  </outline>
</glyph>
<glyph name="J" format="1">
  <advance width="319"/>
  <unicode hex="004A"/>
  <outline>
    <contour>
      <point x="545" y="118" type="curve" smooth="yes"/>
      <point x="545" y="608" type="line"/>
      <point x="685" y="608" type="line"/>
      <point x="685" y="78" type="line" smooth="yes"/>
      <point x="685" y="-19"/>
      <point x="595" y="-74"/>
      <point x="518" y="-74" type="curve" smooth="yes"/>
      <point x="451" y="-74"/>
      <point x="411" y="-54"/>
      <point x="361" y="-7" type="curve"/>
      <point x="411" y="98" type="line"/>
      <point x="451" y="60"/>
      <point x="480" y="46"/>
      <point x="498" y="46" type="curve" smooth="yes"/>
      <point x="526" y="46"/>
      <point x="545" y="60"/>
    </contour>
  </outline>
</glyph>
<glyph name="L" format="1">
  <advance width="445"/>
  <unicode hex="004C"/>
  <outline>
    <contour>
      <point x="456" y="108" type="curve"/>
      <point x="456" y="608" type="line"/>
      <point x="596" y="608" type="line"/>
      <point x="596" y="228" type="line"/>
      <point x="836" y="228" type="line"/>
      <point x="836" y="108" type="line"/>
      <point x="709" y="108"/>
      <point x="583" y="108"/>
    </contour>
  </outline>
</glyph>
<glyph name="M" format="1">
  <advance width="690"/>
  <unicode hex="004D"/>
  <outline>
    <contour>
      <point x="456" y="108" type="line"/>
      <point x="456" y="608" type="line"/>
      <point x="596" y="608" type="line"/>
      <point x="756" y="338" type="line"/>
      <point x="916" y="608" type="line"/>
      <point x="1056" y="608" type="line"/>
      <point x="1056" y="108" type="line"/>
      <point x="916" y="108" type="line"/>
      <point x="916" y="368" type="line"/>
      <point x="756" y="98" type="line"/>
      <point x="596" y="368" type="line"/>
      <point x="596" y="108" type="line"/>
    </contour>
  </outline>
</glyph>
<glyph name="O" format="1">
  <advance width="610"/>
  <unicode hex="004F"/>
  <outline>
    <contour>
      <point x="441" y="358" type="curve" smooth="yes"/>
      <point x="441" y="507"/>
      <point x="541" y="628"/>
      <point x="716" y="628" type="curve" smooth="yes"/>
      <point x="891" y="628"/>
      <point x="991" y="507"/>
      <point x="991" y="358" type="curve" smooth="yes"/>
      <point x="991" y="209"/>
      <point x="891" y="88"/>
      <point x="716" y="88" type="curve" smooth="yes"/>
      <point x="541" y="88"/>
      <point x="441" y="209"/>
    </contour>
    <contour>
      <point x="586" y="358" type="curve" smooth="yes"/>
      <point x="586" y="265"/>
      <point x="654" y="213"/>
      <point x="716" y="213" type="curve" smooth="yes"/>
      <point x="778" y="213"/>
      <point x="846" y="265"/>
      <point x="846" y="358" type="curve" smooth="yes"/>
      <point x="846" y="451"/>
      <point x="778" y="503"/>
      <point x="716" y="503" type="curve" smooth="yes"/>
      <point x="654" y="503"/>
      <point x="586" y="451"/>
    </contour>
  </outline>
</glyph>
<glyph name="S" format="1">
  <advance width="449"/>
  <unicode hex="0053"/>
  <outline>
    <contour>
      <point x="690" y="258" type="curve" smooth="yes"/>
      <point x="690" y="318"/>
      <point x="457" y="321"/>
      <point x="457" y="471" type="curve" smooth="yes"/>
      <point x="457" y="568"/>
      <point x="542" y="623"/>
      <point x="649" y="623" type="curve" smooth="yes"/>
      <point x="716" y="623"/>
      <point x="776" y="593"/>
      <point x="826" y="536" type="curve"/>
      <point x="786" y="426" type="line"/>
      <point x="746" y="464"/>
      <point x="698" y="503"/>
      <point x="650" y="503" type="curve" smooth="yes"/>
      <point x="622" y="503"/>
      <point x="612" y="489"/>
      <point x="612" y="471" type="curve" smooth="yes"/>
      <point x="612" y="411"/>
      <point x="835" y="404"/>
      <point x="835" y="260" type="curve" smooth="yes"/>
      <point x="835" y="133"/>
      <point x="740" y="93"/>
      <point x="633" y="93" type="curve" smooth="yes"/>
      <point x="536" y="93"/>
      <point x="466" y="128"/>
      <point x="426" y="175" type="curve"/>
      <point x="466" y="290" type="line"/>
      <point x="506" y="252"/>
      <point x="575" y="218"/>
      <point x="623" y="218" type="curve" smooth="yes"/>
      <point x="661" y="218"/>
      <point x="690" y="227"/>
    </contour>
  </outline>
</glyph>
<glyph name="V" format="1">
  <advance width="580"/>
  <unicode hex="0056"/>
  <outline>
    <contour>
      <point x="981" y="608" type="line"/>
      <point x="781" y="108" type="line"/>
      <point x="621" y="108" type="line"/>
      <point x="421" y="608" type="line"/>
      <point x="571" y="608" type="line"/>
      <point x="701" y="247" type="line"/>
      <point x="831" y="608" type="line"/>
    </contour>
  </outline>
</glyph>
<glyph name="W" format="1">
  <advance width="880"/>
  <unicode hex="0057"/>
  <outline>
    <contour>
      <point x="1271" y="608" type="line"/>
      <point x="1081" y="108" type="line"/>
      <point x="921" y="108" type="line"/>
      <point x="853" y="303" type="line"/>
      <point x="781" y="108" type="line"/>
      <point x="621" y="108" type="line"/>
      <point x="431" y="608" type="line"/>
      <point x="581" y="608" type="line"/>
      <point x="705" y="243" type="line"/>
      <point x="792" y="461" type="line"/>
      <point x="731" y="608" type="line"/>
      <point x="891" y="608" type="line"/>
      <point x="1003" y="260" type="line"/>
      <point x="1121" y="608" type="line"/>
    </contour>
  </outline>
</glyph>
<glyph name="Z" format="1">
  <advance width="580"/>
  <unicode hex="005A"/>
  <outline>
    <contour>
      <point x="491" y="493" type="line"/>
      <point x="491" y="608" type="line"/>
      <point x="981" y="608" type="line"/>
      <point x="685" y="228" type="line"/>
      <point x="941" y="228" type="line"/>
      <point x="941" y="108" type="line"/>
      <point x="431" y="108" type="line"/>
      <point x="731" y="493" type="line"/>
    </contour>
  </outline>
</glyph>
<glyph name="a" format="1">
  <advance width="434"/>
  <unicode hex="0061"/>
  <outline>
    <contour>
      <point x="670" y="306" type="curve"/>
      <point x="670" y="320" type="line" smooth="yes"/>
      <point x="670" y="378"/>
      <point x="661" y="398"/>
      <point x="613" y="398" type="curve" smooth="yes"/>
      <point x="595" y="398"/>
      <point x="546" y="388"/>
      <point x="506" y="360" type="curve"/>
      <point x="456" y="430" type="line"/>
      <point x="516" y="467"/>
      <point x="586" y="503"/>
      <point x="663" y="503" type="curve" smooth="yes"/>
      <point x="750" y="503"/>
      <point x="805" y="447"/>
      <point x="805" y="350" type="curve" smooth="yes"/>
      <point x="805" y="108" type="line"/>
      <point x="670" y="108" type="line"/>
      <point x="670" y="148" type="line"/>
      <point x="644" y="120"/>
      <point x="605" y="98"/>
      <point x="553" y="98" type="curve" smooth="yes"/>
      <point x="496" y="98"/>
      <point x="431" y="123"/>
      <point x="431" y="220" type="curve" smooth="yes"/>
      <point x="431" y="297"/>
      <point x="491" y="333"/>
      <point x="568" y="333" type="curve" smooth="yes"/>
      <point x="610" y="333"/>
      <point x="644" y="321"/>
    </contour>
    <contour>
      <point x="670" y="241" type="line"/>
      <point x="660" y="249"/>
      <point x="647" y="259"/>
      <point x="618" y="259" type="curve" smooth="yes"/>
      <point x="590" y="259"/>
      <point x="576" y="237"/>
      <point x="576" y="219" type="curve" smooth="yes"/>
      <point x="576" y="201"/>
      <point x="585" y="174"/>
      <point x="613" y="174" type="curve" smooth="yes"/>
      <point x="637" y="174"/>
      <point x="657" y="186"/>
      <point x="670" y="201" type="curve"/>
    </contour>
  </outline>
</glyph>
<glyph name="j" format="1">
  <advance width="277"/>
  <unicode hex="006A"/>
  <outline>
    <contour>
      <point x="485" y="493" type="line"/>
      <point x="620" y="493" type="line"/>
      <point x="620" y="12" type="line" smooth="yes"/>
      <point x="620" y="-85"/>
      <point x="535" y="-140"/>
      <point x="458" y="-140" type="curve" smooth="yes"/>
      <point x="391" y="-140"/>
      <point x="361" y="-125"/>
      <point x="311" y="-78" type="curve"/>
      <point x="351" y="22" type="line"/>
      <point x="391" y="-16"/>
      <point x="420" y="-30"/>
      <point x="438" y="-30" type="curve" smooth="yes"/>
      <point x="466" y="-30"/>
      <point x="485" y="-16"/>
      <point x="485" y="42" type="curve" smooth="yes"/>
    </contour>
    <contour>
      <point x="552" y="550" type="line"/>
      <point x="457" y="645" type="line"/>
      <point x="552" y="741" type="line"/>
      <point x="648" y="645" type="line"/>
    </contour>
  </outline>
</glyph>
<glyph name="o" format="1">
  <advance width="474"/>
  <unicode hex="006F"/>
  <outline>
    <contour>
      <point x="576" y="300" type="curve" smooth="yes"/>
      <point x="576" y="252"/>
      <point x="600" y="213"/>
      <point x="648" y="213" type="curve" smooth="yes"/>
      <point x="696" y="213"/>
      <point x="720" y="252"/>
      <point x="720" y="300" type="curve" smooth="yes"/>
      <point x="720" y="348"/>
      <point x="696" y="388"/>
      <point x="648" y="388" type="curve" smooth="yes"/>
      <point x="600" y="388"/>
      <point x="576" y="348"/>
    </contour>
    <contour>
      <point x="446" y="300" type="curve" smooth="yes"/>
      <point x="446" y="427"/>
      <point x="531" y="503"/>
      <point x="648" y="503" type="curve" smooth="yes"/>
      <point x="765" y="503"/>
      <point x="850" y="427"/>
      <point x="850" y="300" type="curve" smooth="yes"/>
      <point x="850" y="173"/>
      <point x="765" y="98"/>
      <point x="648" y="98" type="curve" smooth="yes"/>
      <point x="531" y="98"/>
      <point x="446" y="183"/>
    </contour>
  </outline>
</glyph>
<glyph name="p" format="1">
  <advance width="499"/>
  <unicode hex="0070"/>
  <outline>
    <contour>
      <point x="451" y="493" type="line"/>
      <point x="586" y="493" type="line"/>
      <point x="586" y="451" type="line"/>
      <point x="617" y="483"/>
      <point x="658" y="503"/>
      <point x="703" y="503" type="curve" smooth="yes"/>
      <point x="810" y="503"/>
      <point x="875" y="418"/>
      <point x="875" y="301" type="curve" smooth="yes"/>
      <point x="875" y="184"/>
      <point x="810" y="98"/>
      <point x="703" y="98" type="curve" smooth="yes"/>
      <point x="658" y="98"/>
      <point x="617" y="116"/>
      <point x="586" y="147" type="curve"/>
      <point x="586" y="-37" type="line"/>
      <point x="451" y="-37" type="line"/>
    </contour>
    <contour>
      <point x="586" y="242" type="line"/>
      <point x="605" y="218"/>
      <point x="634" y="203"/>
      <point x="663" y="203" type="curve" smooth="yes"/>
      <point x="711" y="203"/>
      <point x="740" y="243"/>
      <point x="740" y="301" type="curve" smooth="yes"/>
      <point x="740" y="359"/>
      <point x="711" y="398"/>
      <point x="663" y="398" type="curve" smooth="yes"/>
      <point x="634" y="398"/>
      <point x="605" y="384"/>
      <point x="586" y="360" type="curve"/>
    </contour>
  </outline>
</glyph>
<glyph name="v" format="1">
  <advance width="465"/>
  <unicode hex="0076"/>
  <outline>
    <contour>
      <point x="571" y="108" type="line"/>
      <point x="421" y="493" type="line"/>
      <point x="566" y="493" type="line"/>
      <point x="647" y="209" type="line"/>
      <point x="721" y="493" type="line"/>
      <point x="866" y="493" type="line"/>
      <point x="726" y="108" type="line"/>
    </contour>
  </outline>
</glyph>
<glyph name="w" format="1">
  <advance width="695"/>
  <unicode hex="0077"/>
  <outline>
    <contour>
      <point x="546" y="108" type="line"/>
      <point x="426" y="493" type="line"/>
      <point x="571" y="493" type="line"/>
      <point x="624" y="236" type="line"/>
      <point x="701" y="493" type="line"/>
      <point x="816" y="493" type="line"/>
      <point x="899" y="236" type="line"/>
      <point x="946" y="493" type="line"/>
      <point x="1091" y="493" type="line"/>
      <point x="981" y="108" type="line"/>
      <point x="836" y="108" type="line"/>
      <point x="760" y="315" type="line"/>
      <point x="691" y="108" type="line"/>
    </contour>
  </outline>
</glyph>
<glyph name="y" format="1">
  <advance width="470"/>
  <unicode hex="0079"/>
  <outline>
    <contour>
      <point x="591" y="139" type="line"/>
      <point x="421" y="493" type="line"/>
      <point x="576" y="493" type="line"/>
      <point x="650" y="290" type="line"/>
      <point x="731" y="493" type="line"/>
      <point x="871" y="493" type="line"/>
      <point x="651" y="-37" type="line"/>
      <point x="521" y="-37" type="line"/>
    </contour>
  </outline>
</glyph>
